<svg width="16" height="16" viewBox="0 0 16 16" fill="none" xmlns="http://www.w3.org/2000/svg">
<path d="M8 0.833008C11.958 0.833008 15.167 4.04196 15.167 8C15.167 11.958 11.958 15.167 8 15.167C4.04196 15.167 0.833008 11.958 0.833008 8C0.833008 7.72397 1.05702 7.50018 1.33301 7.5C1.60915 7.5 1.83301 7.72386 1.83301 8C1.83301 11.4058 4.59424 14.167 8 14.167C11.4058 14.167 14.167 11.4058 14.167 8C14.167 4.59424 11.4058 1.83301 8 1.83301C7.72386 1.83301 7.5 1.60915 7.5 1.33301C7.50018 1.05702 7.72397 0.833008 8 0.833008ZM8 4.83301C8.27603 4.83301 8.49982 5.05702 8.5 5.33301V7.5H10.667C10.943 7.50018 11.167 7.72397 11.167 8C11.167 8.27603 10.943 8.49982 10.667 8.5H8.5V10.667C8.49982 10.943 8.27603 11.167 8 11.167C7.72397 11.167 7.50018 10.943 7.5 10.667V8.5H5.33301C5.05701 8.49982 4.83301 8.27603 4.83301 8C4.83301 7.72397 5.05702 7.50018 5.33301 7.5H7.5V5.33301C7.50018 5.05702 7.72397 4.83301 8 4.83301ZM2.1709 3.81738C2.33673 3.59677 2.65036 3.55214 2.87109 3.71777C3.09177 3.88357 3.13631 4.19721 2.9707 4.41797C2.63566 4.8639 2.3509 5.35016 2.125 5.86719C2.01441 6.12006 1.71975 6.23541 1.4668 6.125C1.21376 6.01444 1.09844 5.71984 1.20898 5.4668C1.46628 4.87791 1.78979 4.32463 2.1709 3.81738ZM5.4668 1.20898C5.71984 1.09844 6.01444 1.21376 6.125 1.4668C6.23541 1.71975 6.12006 2.01441 5.86719 2.125C5.35017 2.35089 4.86389 2.63567 4.41797 2.9707C4.19721 3.13629 3.88357 3.09176 3.71777 2.87109C3.55215 2.65037 3.59679 2.33673 3.81738 2.1709C4.32463 1.78979 4.87792 1.46627 5.4668 1.20898Z" fill="#202637"/>
</svg>
