<svg width="14" height="16" viewBox="0 0 14 16" fill="none" xmlns="http://www.w3.org/2000/svg">
<path d="M7.46425 0.314305C7.38832 0.124475 7.20446 0 7.00001 0C6.79556 0 6.6117 0.124475 6.53577 0.314305L3.53577 7.8143C3.43322 8.0707 3.55792 8.36168 3.81432 8.46424C4.07071 8.5668 4.36169 8.44209 4.46425 8.1857L5.53707 5.50364H8.46295L9.53577 8.1857C9.63833 8.44209 9.92931 8.5668 10.1857 8.46424C10.4421 8.36168 10.5668 8.0707 10.4642 7.8143L7.46425 0.314305ZM7.00001 1.84629L8.06295 4.50364H5.93707L7.00001 1.84629ZM1.5 10C0.671573 10 0 10.6716 0 11.5V14.5C0 15.3284 0.671573 16 1.5 16H12.5C13.3284 16 14 15.3284 14 14.5V11.5C14 10.6716 13.3284 10 12.5 10H1.5ZM1 11.5C1 11.2239 1.22386 11 1.5 11H12.5C12.7761 11 13 11.2239 13 11.5V14.5C13 14.7761 12.7761 15 12.5 15H1.5C1.22386 15 1 14.7761 1 14.5V11.5Z" fill="#242424"/>
</svg>
