<svg width="15" height="17" viewBox="0 0 15 17" fill="none" xmlns="http://www.w3.org/2000/svg">
<path d="M3.00011 0.499875C3.00011 0.267987 2.84067 0.0665279 2.61499 0.0132508C2.38621 -0.0407569 2.15942 0.0747692 2.05148 0.278953C2.0295 0.320845 2.00531 0.361617 1.98053 0.401889C1.92681 0.489179 1.8447 0.612493 1.73468 0.750028C1.51178 1.02865 1.19011 1.34586 0.776503 1.55266C0.529514 1.67616 0.429401 1.97649 0.552896 2.22348C0.676391 2.47047 0.976727 2.57058 1.22372 2.44709C1.52353 2.29718 1.78202 2.11079 2.00011 1.9181V4.49988C2.00011 4.77602 2.22397 4.99988 2.50011 4.99988C2.77625 4.99988 3.00011 4.77602 3.00011 4.49988V0.499875ZM0.646421 6.64639C0.451173 6.84166 0.451196 7.15825 0.646473 7.35349C0.840587 7.54758 1.15457 7.54871 1.35008 7.35691L1.35665 7.35089C1.36458 7.34379 1.37911 7.3312 1.39988 7.31488C1.44165 7.28204 1.50709 7.23533 1.59323 7.18792C1.76518 7.09329 2.01033 7.00073 2.31294 6.99988C2.54021 7.00441 2.72387 7.06465 2.83732 7.14866C2.93306 7.21956 3 7.31935 3 7.49997C3 7.70224 2.92979 7.8191 2.78928 7.93618C2.63792 8.06232 2.44136 8.15961 2.17109 8.29339C2.12524 8.31608 2.07662 8.34015 2.0264 8.36526C1.71266 8.52213 1.32368 8.72875 1.02065 9.06208C0.699189 9.41569 0.5 9.88078 0.5 10.5C0.5 10.7761 0.723858 11 1 11H3.49944C3.77558 11 4 10.7761 4 10.5C4 10.2239 3.77614 9.99999 3.5 9.99999H1.58925C1.63458 9.89327 1.69413 9.80786 1.7606 9.73475C1.92632 9.55245 2.16234 9.41532 2.4736 9.25969C2.51206 9.24046 2.55257 9.22059 2.5946 9.19997C2.85655 9.07147 3.17854 8.91351 3.42947 8.7044C3.75771 8.43086 4 8.04771 4 7.49997C4 6.99553 3.77725 6.60036 3.43244 6.34502C3.10604 6.10332 2.69985 6.00626 2.32563 5.99995L2.31722 5.99988C1.80459 5.99985 1.39261 6.15689 1.11107 6.31184C0.970064 6.38944 0.859422 6.46775 0.781908 6.52868C0.743031 6.55924 0.712117 6.58572 0.689507 6.60596C0.67819 6.6161 0.668917 6.62471 0.661731 6.63152L0.652509 6.64038L0.649072 6.64375L0.647648 6.64516L0.646421 6.64639ZM0.661731 6.63152L0.646421 6.64639C0.646421 6.64639 0.747103 6.55664 0.661731 6.63152ZM2.25011 13.9999C1.97397 13.9999 1.75011 14.2237 1.75011 14.4999C1.75011 14.776 1.97397 14.9999 2.25011 14.9999C2.5929 14.9999 2.78233 15.0966 2.87775 15.183C2.97201 15.2683 3.01072 15.3743 3.00671 15.4811C2.99946 15.6746 2.82083 15.9999 2.25011 15.9999C1.8376 15.9999 1.62396 15.8982 1.52746 15.8339C1.4769 15.8001 1.44973 15.7709 1.43891 15.7579L1.43482 15.7528C1.30449 15.5231 1.01552 15.4332 0.776503 15.5527C0.529514 15.6762 0.429401 15.9765 0.552896 16.2235L0.55361 16.2249L0.554355 16.2264L0.555938 16.2295L0.559484 16.2362L0.56815 16.252C0.574647 16.2635 0.582617 16.2768 0.592216 16.2917C0.611411 16.3216 0.63716 16.3579 0.670686 16.3981C0.737992 16.4789 0.835816 16.5746 0.972759 16.6659C1.25126 16.8516 1.66262 16.9999 2.25011 16.9999C3.27939 16.9999 3.97576 16.3251 4.00601 15.5186C4.01979 15.1511 3.88798 14.7829 3.60959 14.4999C3.88798 14.2168 4.01979 13.8486 4.00601 13.4811C3.97576 12.6746 3.27939 11.9999 2.25011 11.9999C1.66262 11.9999 1.25126 12.1482 0.972759 12.3339C0.835816 12.4251 0.737992 12.5209 0.670686 12.6017C0.63716 12.6419 0.611411 12.6782 0.592216 12.708C0.582617 12.7229 0.574647 12.7363 0.56815 12.7478L0.559484 12.7635L0.555938 12.7703L0.554355 12.7734L0.55361 12.7748L0.552896 12.7763C0.429401 13.0233 0.529514 13.3236 0.776503 13.4471C1.01552 13.5666 1.30449 13.4767 1.43482 13.2469L1.43891 13.2418C1.44973 13.2289 1.4769 13.1996 1.52746 13.1659C1.62396 13.1016 1.8376 12.9999 2.25011 12.9999C2.82083 12.9999 2.99946 13.3251 3.00671 13.5186C3.01072 13.6254 2.97201 13.7314 2.87775 13.8168C2.78233 13.9032 2.5929 13.9999 2.25011 13.9999ZM1.43482 13.2469L1.43279 13.2497L1.43339 13.2488C1.43339 13.2488 1.43583 13.2449 1.43817 13.2408L1.44223 13.2334L1.44465 13.2287L1.44596 13.2262L1.44698 13.2242C1.44309 13.2319 1.43904 13.2395 1.43482 13.2469ZM6.49976 2.99988C6.22361 2.99988 5.99976 3.22374 5.99976 3.49988C5.99976 3.77602 6.22361 3.99988 6.49976 3.99988H14.4998C14.7759 3.99988 14.9998 3.77602 14.9998 3.49988C14.9998 3.22374 14.7759 2.99988 14.4998 2.99988H6.49976ZM6.49976 7.99988C6.22361 7.99988 5.99976 8.22374 5.99976 8.49988C5.99976 8.77602 6.22361 8.99988 6.49976 8.99988H14.4998C14.7759 8.99988 14.9998 8.77602 14.9998 8.49988C14.9998 8.22374 14.7759 7.99988 14.4998 7.99988H6.49976ZM5.99976 13.4999C5.99976 13.2237 6.22361 12.9999 6.49976 12.9999H14.4998C14.7759 12.9999 14.9998 13.2237 14.9998 13.4999C14.9998 13.776 14.7759 13.9999 14.4998 13.9999H6.49976C6.22361 13.9999 5.99976 13.776 5.99976 13.4999Z" fill="#242424"/>
</svg>
