<svg width="14" height="16" viewBox="0 0 14 16" fill="none" xmlns="http://www.w3.org/2000/svg">
<path d="M0.5 0C0.776142 0 1 0.223858 1 0.5V4.5C1 4.77614 1.22386 5 1.5 5H12.5C12.7761 5 13 4.77614 13 4.5V0.5C13 0.223858 13.2239 0 13.5 0C13.7761 0 14 0.223858 14 0.5V4.5C14 5.15311 13.5826 5.70873 13 5.91465V7C13 8.10457 12.1046 9 11 9V11.0729C11 11.8305 10.572 12.523 9.89443 12.8618L3.72361 15.9472C3.56861 16.0247 3.38454 16.0164 3.23713 15.9253C3.08973 15.8342 3 15.6733 3 15.5V9C1.89543 9 1 8.10457 1 7V5.91465C0.417404 5.70873 0 5.15311 0 4.5V0.5C0 0.223858 0.223858 0 0.5 0ZM2 6V7C2 7.55228 2.44772 8 3 8H11C11.5523 8 12 7.55228 12 7V6H2ZM4 9V14.691L9.44721 11.9674C9.786 11.798 10 11.4517 10 11.0729V9H4Z" fill="#242424"/>
</svg>
