<svg width="16" height="13" viewBox="0 0 16 13" fill="none" xmlns="http://www.w3.org/2000/svg">
<path d="M1 2.5C1.55228 2.5 2 2.05228 2 1.5C2 0.947715 1.55228 0.5 1 0.5C0.447715 0.5 0 0.947715 0 1.5C0 2.05228 0.447715 2.5 1 2.5ZM4 1.5C4 1.22386 4.22386 1 4.5 1H15.5C15.7761 1 16 1.22386 16 1.5C16 1.77614 15.7761 2 15.5 2H4.5C4.22386 2 4 1.77614 4 1.5ZM4 6.5C4 6.22386 4.22386 6 4.5 6H15.5C15.7761 6 16 6.22386 16 6.5C16 6.77614 15.7761 7 15.5 7H4.5C4.22386 7 4 6.77614 4 6.5ZM4.5 11C4.22386 11 4 11.2239 4 11.5C4 11.7761 4.22386 12 4.5 12H15.5C15.7761 12 16 11.7761 16 11.5C16 11.2239 15.7761 11 15.5 11H4.5ZM2 11.5C2 12.0523 1.55228 12.5 1 12.5C0.447715 12.5 0 12.0523 0 11.5C0 10.9477 0.447715 10.5 1 10.5C1.55228 10.5 2 10.9477 2 11.5ZM1 7.5C1.55228 7.5 2 7.05228 2 6.5C2 5.94772 1.55228 5.5 1 5.5C0.447715 5.5 0 5.94772 0 6.5C0 7.05228 0.447715 7.5 1 7.5Z" fill="#212121"/>
</svg>
