<svg width="16" height="14" viewBox="0 0 16 14" fill="none" xmlns="http://www.w3.org/2000/svg">
<path d="M10.9999 0.5C11.2083 0.5 11.3949 0.629286 11.4681 0.824438L14.464 8.81364C14.4669 8.82081 14.4696 8.82805 14.4722 8.83537L15.9681 12.8244C16.065 13.083 15.934 13.3712 15.6755 13.4682C15.4169 13.5651 15.1287 13.4341 15.0317 13.1756L13.6534 9.5H8.34639L6.96805 13.1756C6.89557 13.3689 6.71175 13.4977 6.50532 13.5C6.2989 13.5022 6.11232 13.3774 6.03565 13.1857L4.96137 10.5H2.03841L0.964127 13.1857C0.86157 13.4421 0.570585 13.5668 0.314194 13.4642C0.0578018 13.3617 -0.0669062 13.0707 0.0356505 12.8143L1.23133 9.82511C1.23401 9.81792 1.23686 9.81081 1.23986 9.80378L3.03565 5.3143C3.11158 5.12448 3.29544 5 3.49989 5C3.70434 5 3.8882 5.12448 3.96413 5.3143L5.75991 9.80377C5.76292 9.81081 5.76577 9.81793 5.76846 9.82513L6.48485 11.6161L7.52762 8.83537C7.53018 8.82805 7.53289 8.82081 7.53577 8.81364L10.5317 0.824438C10.6049 0.629286 10.7915 0.5 10.9999 0.5ZM8.72139 8.5H13.2784L10.9999 2.424L8.72139 8.5ZM4.56137 9.5L3.49989 6.84629L2.43841 9.5H4.56137Z" fill="#242424"/>
</svg>
