<svg width="12" height="11" viewBox="0 0 12 11" fill="none" xmlns="http://www.w3.org/2000/svg">
<path d="M3.82645 4.61948C3.63092 5.73653 3.28608 6.63552 2.87439 7.38404C2.22505 8.56467 1.39792 9.39497 0.646447 10.1464C0.451184 10.3417 0.451184 10.6583 0.646447 10.8536C0.841709 11.0488 1.15829 11.0488 1.35355 10.8536L1.36545 10.8417C2.11184 10.0953 3.02879 9.17835 3.75061 7.86596C4.48082 6.5383 5 4.82976 5 2.5C5 1.11929 3.88071 0 2.5 0C1.11929 0 0 1.11929 0 2.5C0 3.88071 1.11929 5 2.5 5C2.98728 5 3.442 4.86059 3.82645 4.61948ZM4 2.5C4 3.32843 3.32843 4 2.5 4C1.67157 4 1 3.32843 1 2.5C1 1.67157 1.67157 1 2.5 1C3.32843 1 4 1.67157 4 2.5ZM10.8264 4.61948C10.6309 5.73653 10.2861 6.63552 9.87439 7.38404C9.22505 8.56467 8.39792 9.39497 7.64645 10.1464C7.45118 10.3417 7.45118 10.6583 7.64645 10.8536C7.84171 11.0488 8.15829 11.0488 8.35355 10.8536L8.36545 10.8417C9.11184 10.0953 10.0288 9.17835 10.7506 7.86596C11.4808 6.5383 12 4.82976 12 2.5C12 1.11929 10.8807 0 9.5 0C8.11929 0 7 1.11929 7 2.5C7 3.88071 8.11929 5 9.5 5C9.98728 5 10.442 4.86059 10.8264 4.61948ZM9.5 4C8.67157 4 8 3.32843 8 2.5C8 1.67157 8.67157 1 9.5 1C10.3284 1 11 1.67157 11 2.5C11 3.32843 10.3284 4 9.5 4Z" fill="#242424"/>
</svg>
