<svg width="20" height="22" viewBox="0 0 20 22" fill="none" xmlns="http://www.w3.org/2000/svg">
<path fill-rule="evenodd" clip-rule="evenodd" d="M10.353 0.250249C10.7235 0.251243 11.0469 0.256214 11.325 0.28107C11.6941 0.31408 12.0382 0.38555 12.3724 0.55897C12.5045 0.6275 12.6308 0.70664 12.7501 0.79561C13.052 1.02075 13.2664 1.29917 13.4571 1.61688C13.6367 1.91618 13.8192 2.29263 14.0341 2.7361L14.5256 3.75H19C19.4142 3.75 19.75 4.08579 19.75 4.5C19.75 4.91422 19.4142 5.25 19 5.25H18.2051L17.6265 14.6101C17.5493 15.858 17.4881 16.8482 17.3627 17.6392C17.234 18.4504 17.028 19.126 16.616 19.7169C16.239 20.2574 15.7537 20.7137 15.1909 21.0565C14.5758 21.4313 13.8888 21.5952 13.0712 21.6736C12.274 21.75 11.2818 21.75 10.0315 21.75H9.9539C8.702 21.75 7.70858 21.75 6.91041 21.6735C6.09186 21.5949 5.40416 21.4307 4.78854 21.0553C4.22537 20.7118 3.73991 20.2547 3.36311 19.7133C2.95121 19.1214 2.74587 18.4449 2.61816 17.6325C2.49362 16.8404 2.43377 15.8488 2.35833 14.5991L1.79393 5.25H1C0.58579 5.25 0.25 4.91422 0.25 4.5C0.25 4.08579 0.58579 3.75 1 3.75H5.57055L5.98959 2.83073C6.19915 2.37095 6.37691 1.98095 6.55391 1.67073C6.74173 1.34153 6.95528 1.05248 7.26078 0.81811C7.38136 0.72561 7.50939 0.64326 7.64357 0.57192C7.98355 0.39114 8.3351 0.31672 8.7126 0.28236C9.0683 0.25 9.4969 0.25 10.0022 0.25L10.353 0.250249ZM16.7022 5.25H3.29666L3.85327 14.47C3.93157 15.767 3.9879 16.6868 4.09996 17.3996C4.21012 18.1003 4.36439 18.5261 4.59431 18.8565C4.85213 19.2269 5.18428 19.5396 5.56961 19.7747C5.91325 19.9842 6.34758 20.1126 7.05365 20.1803C7.77186 20.2492 8.6934 20.25 9.9928 20.25C11.2905 20.25 12.2107 20.2492 12.928 20.1805C13.6332 20.1128 14.0671 19.9848 14.4105 19.7755C14.7956 19.5409 15.1277 19.2288 15.3856 18.8589C15.6156 18.5291 15.7702 18.1039 15.8812 17.4042C15.9941 16.6925 16.0517 15.7741 16.1317 14.4788L16.7022 5.25ZM7.5 8.75C7.91421 8.75 8.25 9.0858 8.25 9.5V15.5C8.25 15.9142 7.91421 16.25 7.5 16.25C7.08579 16.25 6.75 15.9142 6.75 15.5V9.5C6.75 9.0858 7.08579 8.75 7.5 8.75ZM12.5 8.75C12.9142 8.75 13.25 9.0858 13.25 9.5V15.5C13.25 15.9142 12.9142 16.25 12.5 16.25C12.0858 16.25 11.75 15.9142 11.75 15.5V9.5C11.75 9.0858 12.0858 8.75 12.5 8.75ZM10.4492 1.75071L9.65805 1.75051C9.31322 1.75191 9.0583 1.75709 8.8486 1.77618C8.5831 1.80035 8.4481 1.84298 8.3478 1.89633C8.2868 1.92876 8.2286 1.96619 8.1738 2.00823C8.0837 2.07739 7.98887 2.18253 7.85677 2.41407C7.7176 2.65798 7.56765 2.98523 7.34105 3.48234L7.21904 3.75H12.8587L12.6982 3.41888C12.4657 2.93926 12.312 2.62382 12.1709 2.38884C12.0371 2.16588 11.9426 2.06458 11.8533 1.99801C11.7991 1.95756 11.7417 1.92159 11.6816 1.89044C11.5828 1.83916 11.4504 1.79827 11.1914 1.77511C10.9964 1.75767 10.7617 1.75233 10.4492 1.75071Z" fill="#EB5757"/>
</svg>
