<svg xmlns="http://www.w3.org/2000/svg" width="19" height="18" viewBox="0 0 19 18" fill="none">
<path d="M14.5 16.292C14.8452 16.292 15.125 16.5718 15.125 16.917C15.1248 17.262 14.8451 17.542 14.5 17.542H11.167C10.822 17.542 10.5422 17.2619 10.542 16.917C10.542 16.5718 10.8218 16.292 11.167 16.292H14.5ZM5.40234 0.458008C6.26011 0.457628 6.85338 0.457595 7.38574 0.657227C8.54846 1.09331 9.05882 2.12597 9.45215 2.92188C9.47894 2.9761 9.50537 3.02929 9.53125 3.08105L9.88672 3.79199H13.4922C14.3412 3.79198 15.0258 3.79179 15.5752 3.84766C16.1423 3.90534 16.6343 4.02771 17.0693 4.31836C17.4106 4.54635 17.7036 4.83945 17.9316 5.18066C18.2306 5.62808 18.3479 6.18471 18.4033 6.78418C18.4586 7.3828 18.458 8.11751 18.458 8.97266V9C18.458 9.34518 18.1782 9.625 17.833 9.625C17.488 9.62482 17.208 9.34507 17.208 9C17.208 8.11139 17.2076 7.43396 17.1582 6.89941C17.1083 6.35962 17.0149 6.05803 16.8926 5.875C16.7558 5.67027 16.5797 5.49422 16.375 5.35742C16.1796 5.2269 15.9172 5.13845 15.4492 5.09082C14.9705 5.04212 14.3488 5.04199 13.458 5.04199H5.33301C4.98805 5.04182 4.70812 4.76196 4.70801 4.41699C4.70801 4.07192 4.98798 3.79217 5.33301 3.79199H8.48828L8.40039 3.61426C7.93898 2.69135 7.6358 2.08669 6.94629 1.82812C6.65333 1.71831 6.30572 1.70801 5.28711 1.70801C4.51908 1.70801 3.98299 1.70946 3.56738 1.74609C3.1603 1.78202 2.92802 1.84858 2.75293 1.94629C2.44934 2.11573 2.19872 2.36633 2.0293 2.66992C1.93162 2.84503 1.86501 3.07728 1.8291 3.48438C1.79247 3.89999 1.79199 4.43607 1.79199 5.2041V7.75C1.79199 9.73185 1.79283 11.1559 1.93848 12.2393C2.08172 13.3043 2.35449 13.9463 2.8291 14.4209C3.25155 14.8433 3.80538 15.1043 4.66797 15.2578C5.5487 15.4145 6.69166 15.4502 8.25293 15.457C8.59786 15.4586 8.87626 15.7391 8.875 16.084C8.87349 16.4292 8.59225 16.7085 8.24707 16.707C6.69867 16.7002 5.45158 16.6676 4.44922 16.4893C3.42878 16.3077 2.60627 15.9656 1.94531 15.3047C1.19968 14.559 0.862058 13.6092 0.700195 12.4053C0.542058 11.229 0.541981 9.7215 0.541992 7.79785V5.1748C0.541985 4.44258 0.541951 3.85194 0.583984 3.375C0.627301 2.8836 0.718364 2.45327 0.9375 2.06055C1.21987 1.55456 1.63758 1.13689 2.14355 0.854492C2.5363 0.635318 2.96657 0.543322 3.45801 0.5C3.93494 0.457958 4.52558 0.458001 5.25781 0.458008H5.40234ZM17.833 13.792C18.1782 13.792 18.458 14.0718 18.458 14.417C18.4579 14.762 18.1781 15.042 17.833 15.042H11.167C10.8219 15.042 10.5421 14.762 10.542 14.417C10.542 14.0718 10.8218 13.792 11.167 13.792H17.833ZM17.833 11.292C18.1782 11.292 18.458 11.5718 18.458 11.917C18.4579 12.262 18.1781 12.542 17.833 12.542H11.167C10.8219 12.542 10.5421 12.262 10.542 11.917C10.542 11.5718 10.8218 11.292 11.167 11.292H17.833Z" fill="#96a0b6"/>
</svg>