<svg width="19" height="17" viewBox="0 0 19 17" fill="none" xmlns="http://www.w3.org/2000/svg">
<path d="M9.15416 0.564382C9.26302 0.22936 9.73698 0.22936 9.84584 0.564382L11.6635 6.15856C11.7122 6.30839 11.8518 6.40983 12.0093 6.40983H17.8914C18.2437 6.40983 18.3901 6.8606 18.1051 7.06765L13.3465 10.525C13.219 10.6176 13.1657 10.7818 13.2144 10.9316L15.032 16.5258C15.1409 16.8608 14.7574 17.1394 14.4724 16.9323L9.71374 13.475C9.58629 13.3824 9.41371 13.3824 9.28626 13.475L4.52757 16.9323C4.24258 17.1394 3.85913 16.8608 3.96799 16.5258L5.78565 10.9316C5.83433 10.7818 5.781 10.6176 5.65355 10.525L0.894853 7.06765C0.609866 6.8606 0.75633 6.40983 1.10859 6.40983H6.99066C7.1482 6.40983 7.28782 6.30839 7.3365 6.15856L9.15416 0.564382Z" fill="#CBD5E1"/>
</svg>
