<svg width="13" height="18" viewBox="0 0 13 18" fill="none" xmlns="http://www.w3.org/2000/svg">
<path d="M8.16699 10.042C10.8084 10.0422 12.9578 12.1916 12.958 14.833C12.958 16.0996 11.9335 17.1248 10.667 17.125H2.33301C1.06649 17.1248 0.0419922 16.0996 0.0419922 14.833C0.0421689 12.1916 2.1916 10.0422 4.83301 10.042H8.16699ZM4.83301 11.292C2.88327 11.2922 1.29217 12.8833 1.29199 14.833C1.29199 15.4079 1.75816 15.8748 2.33301 15.875H10.667C11.2418 15.8748 11.708 15.4079 11.708 14.833C11.7078 12.8833 10.1167 11.2922 8.16699 11.292H4.83301ZM6.5 0.875C8.68322 0.875 10.4578 2.64982 10.458 4.83301C10.458 7.01634 8.68333 8.79199 6.5 8.79199C4.31667 8.79199 2.54199 7.01634 2.54199 4.83301C2.54217 2.64982 4.31678 0.875 6.5 0.875ZM6.5 2.125C5.00844 2.125 3.79217 3.34149 3.79199 4.83301C3.79199 6.32467 5.00833 7.54199 6.5 7.54199C7.99167 7.54199 9.20801 6.32467 9.20801 4.83301C9.20783 3.34149 7.99156 2.125 6.5 2.125Z" fill="#96A0B6"/>
</svg>
