<svg width="16" height="19" viewBox="0 0 16 19" fill="none" xmlns="http://www.w3.org/2000/svg">
<path d="M9.84761 17.0088C9.45036 17.6062 8.77107 18 7.99981 18C7.22855 18 6.54926 17.6062 6.15201 17.0088M8.00055 1C10.8578 1.00026 13.1736 3.31685 13.1736 6.17413V7.44625C13.1736 8.69336 14.0375 9.79621 14.4743 10.9643C14.5893 11.2719 14.6522 11.6049 14.6522 11.9526C14.652 13.3148 13.6785 14.4836 12.3291 14.6708C10.9889 14.8566 9.31382 15.0438 7.99944 15.0438C6.68519 15.0437 5.01088 14.8566 3.67088 14.6708C2.32147 14.4837 1.34797 13.3148 1.34778 11.9526C1.34778 11.605 1.41063 11.272 1.52559 10.9645C1.9623 9.79621 2.82642 8.69325 2.82642 7.44602V6.17413C2.82642 3.31669 5.14311 1 8.00055 1Z" stroke="#96A0B6" stroke-width="2" stroke-linecap="round"/>
</svg>
