<svg xmlns="http://www.w3.org/2000/svg" width="17" height="16" viewBox="0 0 17 16" fill="none">
<path d="M1.5 7.2929C1.5 6.06871 2.06058 4.91193 3.02142 4.15337L5.90892 1.87376C7.36216 0.726472 9.41284 0.726472 10.8661 1.87376L13.7536 4.15337C14.7144 4.91193 15.275 6.06871 15.275 7.2929V10.647C15.275 12.7291 13.5871 14.417 11.505 14.417V14.417C10.9845 14.417 10.5625 13.995 10.5625 13.4745V12.067C10.5625 10.9624 9.66707 10.067 8.5625 10.067H8.2125C7.10793 10.067 6.2125 10.9624 6.2125 12.067V13.4745C6.2125 13.995 5.79053 14.417 5.27 14.417V14.417C3.18789 14.417 1.5 12.7291 1.5 10.647L1.5 7.2929Z" stroke="#5879dc" stroke-width="1.5" fill="#ffffff"/>
</svg>