<svg width="16" height="15" viewBox="0 0 16 15" fill="none" xmlns="http://www.w3.org/2000/svg">
<path d="M9.33301 1C9.60915 1.00001 9.83302 1.22386 9.83301 1.5C9.83297 1.77612 9.60913 2.00001 9.33301 2H7.66699C6.16019 2 5.08003 2.00094 4.25879 2.11133C3.45191 2.21981 2.96962 2.42589 2.61426 2.78125C2.25907 3.13655 2.05281 3.61825 1.94434 4.4248C1.83392 5.24603 1.83301 6.3262 1.83301 7.83301C1.83301 9.33984 1.83394 10.42 1.94434 11.2412C2.05282 12.0481 2.25889 12.5304 2.61426 12.8857C2.71836 12.9898 2.835 13.0785 2.96582 13.1582C3.14179 12.9595 3.32184 12.7552 3.50391 12.5469C4.73972 11.1326 6.11947 9.55346 7.69336 8.59473C8.61344 8.03429 9.62638 7.66728 10.7422 7.66699C11.6241 7.66683 12.541 7.89615 13.499 8.40137C13.4991 8.32427 13.5 8.24563 13.5 8.16602C13.5003 7.89007 13.724 7.66696 14 7.66699C14.2761 7.66712 14.5001 7.89085 14.5 8.16699C14.4994 9.53811 14.4919 10.6237 14.3652 11.4785C14.2364 12.3479 13.9759 13.0426 13.4258 13.5928C12.8537 14.1647 12.1256 14.4225 11.208 14.5459C10.3125 14.6663 9.16541 14.667 7.70508 14.667H7.62891C6.16845 14.667 5.02061 14.6663 4.125 14.5459C3.20744 14.4225 2.47927 14.1648 1.90723 13.5928C1.3352 13.0207 1.07752 12.2925 0.954102 11.375C0.83369 10.4794 0.832999 9.33156 0.833008 7.87109V7.79492C0.832999 6.33456 0.833701 5.18756 0.954102 4.29199C1.07748 3.37434 1.33525 2.64632 1.90723 2.07422C2.47929 1.50215 3.20738 1.24353 4.125 1.12012C5.02061 0.999705 6.16844 0.999991 7.62891 1H9.33301ZM10.7422 8.66699C9.85535 8.66722 9.02139 8.95735 8.21387 9.44922C6.78278 10.321 5.51651 11.7667 4.26758 13.1934C4.17424 13.3 4.07954 13.4056 3.98633 13.5117C4.07282 13.5273 4.16357 13.5419 4.25879 13.5547C5.08004 13.6651 6.16016 13.667 7.66699 13.667C9.17374 13.667 10.254 13.6651 11.0752 13.5547C11.8816 13.4462 12.3635 13.2409 12.7188 12.8857C13.0608 12.5437 13.2645 12.0844 13.376 11.332C13.4479 10.8466 13.4755 10.2657 13.4883 9.55176C12.4719 8.91883 11.5649 8.6668 10.7422 8.66699ZM13 0.333008C13.172 0.333008 13.3201 0.392652 13.4277 0.450195C13.5393 0.509914 13.6433 0.587632 13.7354 0.666016C13.9189 0.822341 14.1026 1.02322 14.2666 1.2168C14.4196 1.3974 14.5687 1.5867 14.6953 1.74805C14.7058 1.76143 14.7164 1.77511 14.7266 1.78809C14.8687 1.96904 14.9663 2.09053 15.0254 2.15137C15.2177 2.34929 15.2133 2.66592 15.0156 2.8584C14.8177 3.05076 14.5011 3.04633 14.3086 2.84863C14.2039 2.74092 14.0686 2.56939 13.9404 2.40625C13.9305 2.39367 13.9201 2.38089 13.9102 2.36816C13.7816 2.20442 13.6443 2.02896 13.5039 1.86328C13.5026 1.86174 13.5013 1.85993 13.5 1.8584V6.16699C13.4998 6.44297 13.276 6.66699 13 6.66699C12.724 6.66699 12.5002 6.44297 12.5 6.16699V1.8584C12.4987 1.85993 12.4974 1.86174 12.4961 1.86328C12.3557 2.02896 12.2184 2.20442 12.0898 2.36816C12.0799 2.38089 12.0695 2.39367 12.0596 2.40625C11.9314 2.56939 11.7961 2.74092 11.6914 2.84863C11.4989 3.04633 11.1823 3.05076 10.9844 2.8584C10.7867 2.66592 10.7823 2.34929 10.9746 2.15137C11.0337 2.09053 11.1313 1.96904 11.2734 1.78809C11.2836 1.7751 11.2942 1.76144 11.3047 1.74805C11.4313 1.5867 11.5804 1.3974 11.7334 1.2168C11.8974 1.02322 12.0811 0.822341 12.2646 0.666016C12.3567 0.587632 12.4607 0.509914 12.5723 0.450195C12.6799 0.392652 12.828 0.333008 13 0.333008Z" fill="#737F8E"/>
</svg>
