<svg xmlns="http://www.w3.org/2000/svg" width="38" height="34" viewBox="0 0 38 34" fill="none">
<path d="M35.8333 12H2.5M22.5 26.1667L26.6667 22L22.5 17.8333M15.8333 17.8333L11.6667 22L15.8333 26.1667M2.5 10L2.5 24C2.5 26.8003 2.5 28.2004 3.04497 29.2699C3.52433 30.2108 4.28924 30.9757 5.23005 31.455C6.29961 32 7.69974 32 10.5 32H27.8333C30.6336 32 32.0337 32 33.1033 31.455C34.0441 30.9757 34.809 30.2108 35.2884 29.27C35.8333 28.2004 35.8333 26.8003 35.8333 24V10C35.8333 7.19974 35.8333 5.79961 35.2884 4.73005C34.809 3.78924 34.0441 3.02434 33.1033 2.54497C32.0337 2 30.6336 2 27.8333 2L10.5 2C7.69974 2 6.29961 2 5.23005 2.54497C4.28924 3.02433 3.52433 3.78924 3.04497 4.73005C2.5 5.79961 2.5 7.19974 2.5 10Z" stroke="#334155" stroke-width="3.33333" stroke-linecap="round" stroke-linejoin="round" fill="#f8fafc"/>
</svg>