<svg xmlns="http://www.w3.org/2000/svg" width="38" height="34" viewBox="0 0 38 34" fill="none">
<path d="M12.1666 32V8.66667C12.1666 7.11671 12.1666 6.34174 12.337 5.7059C12.7993 3.98044 14.1471 2.63271 15.8725 2.17037C16.5084 2 17.2833 2 18.8333 2C20.3832 2 21.1582 2 21.7941 2.17037C23.5195 2.63271 24.8673 3.98044 25.3296 5.7059C25.5 6.34174 25.5 7.11671 25.5 8.66667V32M7.49996 32H30.1666C32.0335 32 32.9669 32 33.6799 31.6367C34.3071 31.3171 34.8171 30.8072 35.1366 30.18C35.5 29.4669 35.5 28.5335 35.5 26.6667V14C35.5 12.1332 35.5 11.1997 35.1366 10.4867C34.8171 9.85949 34.3071 9.34956 33.6799 9.02998C32.9669 8.66667 32.0335 8.66667 30.1666 8.66667H7.49996C5.63312 8.66667 4.6997 8.66667 3.98666 9.02998C3.35945 9.34956 2.84952 9.85949 2.52994 10.4867C2.16663 11.1997 2.16663 12.1332 2.16663 14V26.6667C2.16663 28.5335 2.16663 29.4669 2.52994 30.18C2.84952 30.8072 3.35945 31.3171 3.98666 31.6367C4.6997 32 5.63312 32 7.49996 32Z" stroke="#334155" stroke-width="3.33333" stroke-linecap="round" stroke-linejoin="round" fill="#f8fafc"/>
</svg>