<svg xmlns="http://www.w3.org/2000/svg" width="34" height="34" viewBox="0 0 34 34" fill="none">
<path d="M16.999 17.0002H17.0157M22.8916 22.8928C15.0811 30.7033 6.11126 34.3967 2.85689 31.1424C-0.397478 27.888 3.29598 18.9182 11.1065 11.1077C18.917 3.2972 27.8868 -0.396267 31.1412 2.8581C34.3955 6.11247 30.7021 15.0823 22.8916 22.8928ZM22.8915 11.1074C30.702 18.9179 34.3955 27.8877 31.1411 31.1421C27.8867 34.3964 18.9169 30.703 11.1064 22.8925C3.29592 15.082 -0.397545 6.11217 2.85682 2.8578C6.11119 -0.396568 15.081 3.29689 22.8915 11.1074ZM17.8324 17.0002C17.8324 17.4605 17.4593 17.8336 16.999 17.8336C16.5388 17.8336 16.1657 17.4605 16.1657 17.0002C16.1657 16.54 16.5388 16.1669 16.999 16.1669C17.4593 16.1669 17.8324 16.54 17.8324 17.0002Z" stroke="#334155" stroke-width="3.33333" stroke-linecap="round" stroke-linejoin="round" fill="#f8fafc"/>
</svg>