<svg xmlns="http://www.w3.org/2000/svg" width="38" height="37" viewBox="0 0 38 37" fill="none">
<path d="M20.3696 22.7412L28.5007 34.6666M16.6317 22.7412L8.50068 34.6666M21.834 20C21.834 21.841 20.3416 23.3334 18.5007 23.3334C16.6597 23.3334 15.1673 21.841 15.1673 20C15.1673 18.1591 16.6597 16.6667 18.5007 16.6667C20.3416 16.6667 21.834 18.1591 21.834 20ZM27.0815 5.55383L7.44103 10.8165C6.99023 10.9373 6.76482 10.9977 6.61614 11.1315C6.48536 11.2493 6.39522 11.4054 6.35863 11.5776C6.31703 11.7733 6.37743 11.9987 6.49822 12.4495L7.96487 17.9231C8.08566 18.3739 8.14606 18.5993 8.27993 18.7479C8.39768 18.8787 8.55382 18.9689 8.72595 19.0055C8.92165 19.0471 9.14705 18.9867 9.59786 18.8659L29.2384 13.6032L27.0815 5.55383ZM34.8213 13.8327C33.0181 14.3159 32.1165 14.5575 31.3337 14.3911C30.6452 14.2447 30.0206 13.8842 29.5496 13.361C29.0141 12.7663 28.7725 11.8647 28.2893 10.0615L28.0305 9.09556C27.5474 7.29233 27.3058 6.39071 27.4722 5.60793C27.6185 4.91939 27.9791 4.29485 28.5022 3.82382C29.0969 3.28834 29.9985 3.04676 31.8018 2.56358C32.2526 2.44279 32.478 2.38239 32.6737 2.42399C32.8458 2.46058 33.0019 2.55072 33.1197 2.6815C33.2536 2.83018 33.314 3.05558 33.4348 3.50639L35.7641 12.1997C35.8849 12.6505 35.9453 12.8759 35.9037 13.0716C35.8671 13.2438 35.777 13.3999 35.6462 13.5177C35.4975 13.6515 35.2721 13.7119 34.8213 13.8327ZM4.33686 18.5501L6.59069 17.9462C7.0415 17.8254 7.2669 17.765 7.41558 17.6311C7.54636 17.5134 7.63651 17.3572 7.67309 17.1851C7.71469 16.9894 7.65429 16.764 7.5335 16.3132L6.92959 14.0594C6.8088 13.6085 6.7484 13.3831 6.61453 13.2345C6.49677 13.1037 6.34064 13.0135 6.1685 12.9769C5.97281 12.9354 5.7474 12.9957 5.2966 13.1165L3.04277 13.7205C2.59196 13.8412 2.36656 13.9016 2.21788 14.0355C2.0871 14.1533 1.99695 14.3094 1.96037 14.4815C1.91877 14.6772 1.97917 14.9026 2.09996 15.3534L2.70387 17.6073C2.82466 18.0581 2.88506 18.2835 3.01893 18.4322C3.13669 18.5629 3.29282 18.6531 3.46496 18.6897C3.66065 18.7313 3.88606 18.6709 4.33686 18.5501Z" stroke="#334155" stroke-width="3.33333" stroke-linecap="round" stroke-linejoin="round" fill="#f8fafc"/>
</svg>