<svg width="19" height="18" viewBox="0 0 19 18" fill="none" xmlns="http://www.w3.org/2000/svg">
<path d="M13.2778 13.6417L18 9M18 9L13.2778 4.35828M18 9H6.66667M9.5 13.6417C9.5 13.9161 9.5 14.0533 9.48962 14.1722C9.38178 15.4074 8.45625 16.4238 7.2192 16.6656C7.10019 16.6889 6.96135 16.704 6.684 16.7343L5.71933 16.8397C4.27012 16.9979 3.54547 17.0771 2.96979 16.896C2.20221 16.6546 1.57556 16.1032 1.24667 15.38C1 14.8376 1 14.121 1 12.6877V5.31233C1 3.87903 1 3.16239 1.24667 2.61997C1.57556 1.89676 2.20221 1.34543 2.96979 1.10399C3.54548 0.922913 4.2701 1.00205 5.71933 1.16034L6.684 1.26569C6.96145 1.29599 7.10017 1.31115 7.2192 1.33441C8.45625 1.57618 9.38178 2.59261 9.48962 3.82783C9.5 3.94668 9.5 4.08388 9.5 4.35828" stroke="#7E8CA0" stroke-width="1.5" stroke-linecap="round" stroke-linejoin="round"/>
</svg>
