<svg width="17" height="16" viewBox="0 0 17 16" fill="none" xmlns="http://www.w3.org/2000/svg">
<path d="M8.93039 13.2025L12.7104 15.6025C13.1979 15.91 13.7979 15.4525 13.6554 14.89L12.5604 10.585C12.5308 10.4657 12.5355 10.3404 12.574 10.2237C12.6124 10.1069 12.6831 10.0034 12.7779 9.92502L16.1679 7.09752C16.6104 6.73002 16.3854 5.98752 15.8079 5.95002L11.3829 5.66502C11.2622 5.65799 11.1461 5.61595 11.0488 5.54403C10.9516 5.4721 10.8774 5.37341 10.8354 5.26002L9.18539 1.10502C9.14171 0.984946 9.06214 0.881221 8.95749 0.807925C8.85283 0.734629 8.72816 0.695313 8.60039 0.695312C8.47262 0.695312 8.34794 0.734629 8.24329 0.807925C8.13863 0.881221 8.05906 0.984946 8.01539 1.10502L6.36539 5.26002C6.32333 5.37341 6.24916 5.4721 6.15193 5.54403C6.0547 5.61595 5.93862 5.65799 5.81789 5.66502L1.39289 5.95002C0.815387 5.98752 0.590387 6.73002 1.03289 7.09752L4.42289 9.92502C4.51764 10.0034 4.58833 10.1069 4.62681 10.2237C4.66529 10.3404 4.67 10.4657 4.64039 10.585L3.62789 14.575C3.45539 15.25 4.17539 15.7975 4.75289 15.43L8.27039 13.2025C8.36903 13.1398 8.4835 13.1065 8.60039 13.1065C8.71728 13.1065 8.83175 13.1398 8.93039 13.2025Z" fill="#FACC15"/>
</svg>
