<svg width="22" height="20" viewBox="0 0 22 20" fill="none" xmlns="http://www.w3.org/2000/svg">
<path d="M16 12.5001V9.49449C16 9.31501 16 9.22527 15.9727 9.14605C15.9485 9.07598 15.9091 9.01217 15.8572 8.95922C15.7986 8.89935 15.7183 8.85922 15.5578 8.77895L11 6.50006M3 7.50006V14.3067C3 14.6786 3 14.8645 3.05802 15.0274C3.10931 15.1713 3.1929 15.3016 3.30238 15.4082C3.42622 15.5287 3.59527 15.6062 3.93335 15.7612L10.3334 18.6945C10.5786 18.8069 10.7012 18.8631 10.8289 18.8853C10.9421 18.9049 11.0579 18.9049 11.1711 18.8853C11.2988 18.8631 11.4214 18.8069 11.6666 18.6945L18.0666 15.7612C18.4047 15.6062 18.5738 15.5287 18.6976 15.4082C18.8071 15.3016 18.8907 15.1713 18.942 15.0274C19 14.8645 19 14.6786 19 14.3067V7.50006M1 6.50006L10.6422 1.67895C10.7734 1.61336 10.839 1.58056 10.9078 1.56766C10.9687 1.55622 11.0313 1.55622 11.0922 1.56766C11.161 1.58056 11.2266 1.61336 11.3578 1.67895L21 6.50006L11.3578 11.3212C11.2266 11.3868 11.161 11.4196 11.0922 11.4325C11.0313 11.4439 10.9687 11.4439 10.9078 11.4325C10.839 11.4196 10.7734 11.3868 10.6422 11.3212L1 6.50006Z" stroke="#0F172A" stroke-width="2" stroke-linecap="round" stroke-linejoin="round"/>
</svg>
